<?xml version="1.0" encoding="utf-8"?>
<!-- Generator: Adobe Illustrator 16.0.0, SVG Export Plug-In . SVG Version: 6.00 Build 0)  -->
<!DOCTYPE svg PUBLIC "-//W3C//DTD SVG 1.1//EN" "http://www.w3.org/Graphics/SVG/1.1/DTD/svg11.dtd">
<svg version="1.1" xmlns="http://www.w3.org/2000/svg" xmlns:xlink="http://www.w3.org/1999/xlink" x="0px" y="0px"
	 width="623.623px" height="283.465px" viewBox="0 0 623.623 283.465" enable-background="new 0 0 623.623 283.465"
	 xml:space="preserve">
<g id="BACKGROUND">
</g>
<g id="OBJECTS">
</g>
<g id="DESIGNED_BY_FREEPIK">
	<rect x="-96.297" y="-517.43" fill="#41434F" width="36.127" height="34.209"/>
	<rect x="-49.426" y="-517.43" fill="#FDD081" width="36.128" height="34.209"/>
	<rect x="-2.554" y="-517.43" fill="#A8B242" width="36.127" height="34.209"/>
	<path fill="#41434F" d="M375.951-291.018c-0.914,0.668-1.76,1.384-2.57,2.119c0.796-6.463,1.424-14.445,1.939-24.678
		c5.703,6.127,17.424,5.641,27.024-1.384c10.125-7.419,14.031-19.291,8.737-26.515c-5.291-7.238-17.791-7.084-27.915,0.333
		c-3.041,2.224-5.507,4.853-7.346,7.633c0.037-8.393-0.146-15.798-0.349-27.232c-0.031-1.735-0.079-3.528-0.14-5.36
		c0.374-0.002,0.739-0.065,1.062-0.207c0,0,24.146-10.357,21.258-65.732c0.083,1.497-1.14,3.816-1.585,5.227
		c-0.591,1.803-1.188,3.58-1.861,5.369c-1.283,3.554-2.725,7.028-4.331,10.428c-3.013,6.318-6.954,12.057-10.365,18.179
		c-2.014,3.593-3.729,7.328-5.024,11.212c-1.253-16.503-3.82-35.624-8.665-56.203c1.438,1.158,3.065,2.006,4.875,2.426
		c8.73,2.026,18.104-6.24,20.941-18.468c2.833-12.226-1.95-23.771-10.68-25.796c-8.729-2.03-18.104,6.241-20.936,18.467
		c-0.086,0.37-0.144,0.737-0.215,1.106c-0.553-1.805-1.129-3.619-1.719-5.438c0.305-6.593-1.826-32.108-47.826-60.343
		c1.454,0.892,2.828,3.513,3.854,4.846c1.304,1.694,2.58,3.396,3.821,5.171c2.486,3.473,4.802,7.041,6.938,10.725
		c3.954,6.864,6.784,14.219,10.309,21.328c3.449,7.014,7.784,13.521,13.487,18.943c1.263,1.193,3.068,3.075,4.964,3.624
		c3.197,9.81,5.873,19.413,8.063,28.693c-4.751-7.333-16.583-18.581-45.752-24.989c1.242,0.275,2.859,1.787,3.91,2.476
		c1.34,0.879,2.657,1.771,3.968,2.717c2.609,1.837,5.121,3.798,7.538,5.871c4.475,3.881,8.277,8.384,12.505,12.536
		c4.161,4.112,8.814,7.645,14.174,10.069c1.353,0.61,3.439,1.69,5.018,1.251c0.264-0.076,0.517-0.222,0.745-0.416
		c0.979,4.75,1.823,9.393,2.553,13.926c-5.787-9.327-15.473-13.967-22.791-10.45c-8.085,3.873-10.241,16.188-4.819,27.511
		c5.425,11.312,16.379,17.34,24.451,13.464c2.691-1.289,4.709-3.527,6.025-6.338c0.646,8.795,0.78,16.896,0.461,24.115
		c-0.023,0.52-0.045,1.027-0.068,1.541c-1.019-1.958-2.294-3.879-3.827-5.695c-8.088-9.588-20.204-12.689-27.052-6.913
		c-6.851,5.773-5.855,18.24,2.237,27.834c8.093,9.597,20.201,12.684,27.051,6.905c0.236-0.199,0.44-0.424,0.657-0.639
		c-0.675,15.816-1.126,27.025-1.317,31.834c-3.944-10.229-14.159-25.085-40.031-40.867c1.282,0.78,2.503,3.098,3.416,4.267
		c1.159,1.498,2.288,3.005,3.389,4.568c2.205,3.057,4.256,6.21,6.151,9.456c3.524,6.056,6.034,12.551,9.163,18.813
		c3.062,6.189,6.91,11.931,11.97,16.707c1.177,1.111,2.894,2.882,4.67,3.247c-4.717,28.401-24.046,55.832-61.456,55.832
		c-45.542,0-50.554-36.148-50.554-80.123v-106.104c0-23.319,4.069-26.605,25.98-27.544v-6.416
		c-10.015,0.625-25.98,0.938-40.848,0.938c-16.582,0-31.925-0.313-40.999-0.938v6.416c21.91,0.938,25.98,4.225,25.98,27.544v100.626
		c0,43.66,4.846,61.816,23.784,79.502c14.085,13.144,33.339,17.371,53.834,17.371c26.288,0,48.047-11.895,58.687-29.894
		c2.638-4.495,4.828-8.126,6.657-12.034c0.016,0.021,0.025,0.043,0.041,0.064c5.3,7.229,17.798,7.082,27.922-0.327
		c10.126-7.418,14.039-19.291,8.738-26.521C398.569-298.59,386.069-298.426,375.951-291.018z"/>
	<path fill="#41434F" d="M-355.959-135.018c-0.914,0.668-1.76,1.384-2.57,2.119c0.796-6.463,1.424-14.445,1.939-24.678
		c5.703,6.127,17.424,5.641,27.024-1.384c10.125-7.419,14.031-19.291,8.737-26.515c-5.291-7.238-17.791-7.084-27.915,0.333
		c-3.041,2.224-5.507,4.853-7.346,7.633c0.037-8.393-0.146-15.798-0.349-27.232c-0.031-1.735-0.079-3.528-0.14-5.36
		c0.374-0.002,0.739-0.065,1.062-0.207c0,0,24.146-10.357,21.258-65.732c0.083,1.497-1.14,3.816-1.585,5.227
		c-0.591,1.803-1.188,3.58-1.861,5.369c-1.283,3.554-2.725,7.028-4.331,10.428c-3.013,6.318-6.954,12.057-10.365,18.179
		c-2.014,3.593-3.729,7.328-5.024,11.212c-1.253-16.503-3.82-35.624-8.665-56.203c1.438,1.158,3.065,2.006,4.875,2.426
		c8.73,2.026,18.104-6.24,20.941-18.468c2.833-12.226-1.95-23.771-10.68-25.796c-8.729-2.03-18.104,6.241-20.936,18.467
		c-0.086,0.37-0.144,0.737-0.215,1.106c-0.553-1.805-1.129-3.619-1.719-5.438c0.305-6.593-1.826-32.108-47.826-60.343
		c1.454,0.892,2.828,3.513,3.854,4.846c1.304,1.694,2.58,3.396,3.821,5.171c2.486,3.473,4.802,7.041,6.938,10.725
		c3.954,6.864,6.784,14.219,10.309,21.328c3.449,7.014,7.784,13.521,13.487,18.943c1.263,1.193,3.068,3.075,4.964,3.624
		c3.197,9.81,5.873,19.413,8.063,28.693c-4.751-7.333-16.583-18.581-45.752-24.989c1.242,0.275,2.859,1.787,3.91,2.476
		c1.34,0.879,2.657,1.771,3.968,2.717c2.609,1.837,5.121,3.798,7.538,5.871c4.475,3.881,8.277,8.384,12.505,12.536
		c4.161,4.112,8.814,7.645,14.174,10.069c1.353,0.61,3.439,1.69,5.018,1.251c0.264-0.076,0.517-0.222,0.745-0.416
		c0.979,4.75,1.823,9.393,2.553,13.926c-5.787-9.327-15.473-13.967-22.791-10.45c-8.085,3.873-10.241,16.188-4.819,27.511
		c5.425,11.312,16.379,17.34,24.451,13.464c2.691-1.289,4.709-3.527,6.025-6.338c0.646,8.795,0.78,16.896,0.461,24.115
		c-0.023,0.52-0.045,1.027-0.068,1.541c-1.019-1.958-2.294-3.879-3.827-5.695c-8.088-9.588-20.204-12.689-27.052-6.913
		c-6.851,5.773-5.855,18.24,2.237,27.834c8.093,9.597,20.201,12.684,27.051,6.905c0.236-0.199,0.44-0.424,0.657-0.639
		c-0.675,15.816-1.126,27.025-1.317,31.834c-3.944-10.229-14.159-25.085-40.031-40.867c1.282,0.78,2.503,3.098,3.416,4.267
		c1.159,1.498,2.288,3.005,3.389,4.568c2.205,3.057,4.256,6.21,6.151,9.456c3.524,6.056,6.034,12.551,9.163,18.813
		c3.062,6.189,6.91,11.931,11.97,16.707c1.177,1.111,2.894,2.882,4.67,3.247c-4.717,28.401-24.046,55.832-61.456,55.832
		c-45.542,0-50.554-36.148-50.554-80.123v-106.104c0-23.319,4.069-26.605,25.98-27.544v-6.416
		c-10.015,0.625-25.98,0.938-40.848,0.938c-16.582,0-31.925-0.313-40.999-0.938v6.416c21.91,0.938,25.98,4.225,25.98,27.544v100.626
		c0,43.66,4.846,61.816,23.784,79.502c14.085,13.144,33.339,17.371,53.834,17.371c26.288,0,48.047-11.895,58.687-29.894
		c2.638-4.495,4.828-8.126,6.657-12.034c0.016,0.021,0.025,0.043,0.041,0.064c5.3,7.229,17.798,7.082,27.922-0.327
		c10.126-7.418,14.039-19.291,8.738-26.521C-333.341-142.59-345.841-142.426-355.959-135.018z"/>
	<g>
		<path fill="#41434F" d="M745.649-360.741c-0.576-32.131-5.874-81.244-27.84-132.74l-5.403,1.843
			c21.644,50.737,28.856,99.18,27.455,130.834c-1.544,34.877-2.423,57.499-2.423,57.499c-0.159,32.511-19.246,69.392-62.625,69.392
			c-45.542,0-50.554-36.148-50.554-80.123v-106.104c0-23.319,4.069-26.605,25.98-27.544v-6.416
			c-10.015,0.625-25.98,0.938-40.848,0.938c-16.582,0-31.925-0.313-40.999-0.938v6.416c21.91,0.938,25.98,4.225,25.98,27.544
			v100.626c0,43.66,4.846,61.816,23.784,79.502c14.085,13.144,33.339,17.371,53.834,17.371c26.288,0,48.047-11.895,58.687-29.894
			c9.306-15.857,13.041-20.962,15.026-65.428C746.232-335.002,745.963-343.029,745.649-360.741z"/>
		<path fill="#41434F" d="M728.1-463.888c0,0,5.828-29.156-47.662-61.989c1.454,0.892,2.828,3.513,3.854,4.846
			c1.304,1.694,2.58,3.396,3.821,5.171c2.486,3.473,4.802,7.041,6.938,10.725c3.954,6.864,6.784,14.219,10.309,21.328
			c3.449,7.014,7.784,13.521,13.487,18.943c1.446,1.367,3.604,3.639,5.795,3.773C726.09-461.008,727.813-462.383,728.1-463.888"/>
		<path fill="#41434F" d="M746.571-366.309c0,0,24.146-10.357,21.258-65.732c0.083,1.497-1.14,3.816-1.585,5.227
			c-0.591,1.803-1.188,3.58-1.861,5.369c-1.283,3.554-2.725,7.028-4.331,10.428c-3.013,6.318-6.954,12.057-10.365,18.179
			c-3.376,6.023-5.943,12.438-7.027,19.306c-0.282,1.738-0.851,4.443,0.143,6.108C743.461-366.329,745.328-365.764,746.571-366.309"
			/>
		<path fill="#41434F" d="M734.994-425.444c0,0-3.034-22.022-48.87-32.093c1.242,0.275,2.859,1.787,3.91,2.476
			c1.34,0.879,2.657,1.771,3.968,2.717c2.609,1.837,5.121,3.798,7.538,5.871c4.475,3.881,8.277,8.384,12.505,12.536
			c4.161,4.112,8.814,7.645,14.174,10.069c1.353,0.61,3.439,1.69,5.018,1.251C734.28-422.916,735.16-424.312,734.994-425.444"/>
		<path fill="#41434F" d="M739.77-292.147c0,0,5.083-25.778-42.26-54.657c1.282,0.78,2.503,3.098,3.416,4.267
			c1.159,1.498,2.288,3.005,3.389,4.568c2.205,3.057,4.256,6.21,6.151,9.456c3.524,6.056,6.034,12.551,9.163,18.813
			c3.062,6.189,6.91,11.931,11.97,16.707c1.276,1.205,3.187,3.207,5.12,3.327C737.999-289.599,739.519-290.814,739.77-292.147"/>
		<path fill="#41434F" d="M730.198-461.201c-2.84,12.22,1.938,23.771,10.674,25.797c8.73,2.026,18.104-6.24,20.941-18.468
			c2.833-12.226-1.95-23.771-10.68-25.796C742.405-481.698,733.029-473.427,730.198-461.201"/>
		<path fill="#41434F" d="M753.343-341.142c-10.131,7.408-14.036,19.275-8.745,26.504c5.291,7.235,17.793,7.089,27.923-0.322
			c10.125-7.419,14.031-19.291,8.737-26.515C775.967-348.713,763.467-348.559,753.343-341.142"/>
		<path fill="#41434F" d="M746.127-291.018c-10.132,7.407-14.05,19.277-8.751,26.512c5.3,7.229,17.798,7.082,27.922-0.327
			c10.126-7.418,14.039-19.291,8.738-26.521C768.746-298.59,756.246-298.426,746.127-291.018"/>
		<path fill="#41434F" d="M738.192-406.076c5.424,11.314,3.268,23.621-4.817,27.494c-8.072,3.876-19.026-2.152-24.451-13.464
			c-5.422-11.323-3.266-23.638,4.819-27.511C721.815-423.437,732.769-417.391,738.192-406.076"/>
		<path fill="#41434F" d="M735.965-364.959c8.092,9.592,9.093,22.049,2.236,27.826c-6.85,5.778-18.958,2.691-27.051-6.905
			c-8.093-9.594-9.088-22.061-2.237-27.834C715.761-377.648,727.877-374.547,735.965-364.959"/>
	</g>
	<g>
		<path fill="#41434F" d="M926.692-353.673c-0.384-21.386-3.375-52.151-14.448-85.604c-2.271-6.863-6.554-5.358-4.218,1.516
			c11.158,32.838,14.953,63.042,14.023,84.038c-1.238,27.976-1.943,46.122-1.943,46.122c-0.128,26.077-15.438,55.66-50.233,55.66
			c-36.531,0-40.551-28.995-40.551-64.269v-85.11c0-18.705,3.264-21.341,20.84-22.094v-5.146c-8.033,0.501-20.84,0.753-32.766,0.753
			c-13.301,0-25.607-0.251-32.887-0.753v5.146c17.575,0.753,20.84,3.389,20.84,22.094v80.715c0,35.021,3.887,49.585,19.078,63.771
			c11.298,10.543,26.742,13.934,43.182,13.934c21.087,0,38.54-9.541,47.074-23.978c7.465-12.72,10.461-16.814,12.054-52.481
			C927.16-333.027,926.944-339.466,926.692-353.673z"/>
		<path fill="#41434F" d="M914.826-429.91c0,0,4.675-23.387-38.231-49.724c1.166,0.715,2.269,2.818,3.092,3.887
			c1.046,1.359,2.069,2.725,3.065,4.147c1.994,2.786,3.852,5.648,5.565,8.603c3.172,5.506,5.441,11.405,8.269,17.108
			c2.767,5.626,6.244,10.845,10.818,15.195c1.16,1.096,2.892,2.918,4.648,3.027C913.213-427.6,914.595-428.703,914.826-429.91"/>
		<path fill="#41434F" d="M927.875-348.889c0,0,19.369-8.308,17.052-52.726c0.066,1.201-0.914,3.061-1.271,4.192
			c-0.474,1.446-0.953,2.872-1.493,4.307c-1.029,2.851-2.186,5.638-3.474,8.365c-2.417,5.068-5.578,9.671-8.314,14.582
			c-2.708,4.832-4.768,9.977-5.637,15.485c-0.227,1.395-0.683,3.564,0.114,4.899C925.381-348.906,926.878-348.452,927.875-348.889"
			/>
		<path fill="#41434F" d="M924.683-366.208c0,0-2.434-17.666-39.2-25.743c0.996,0.221,2.294,1.433,3.137,1.985
			c1.074,0.705,2.131,1.42,3.183,2.179c2.093,1.474,4.107,3.047,6.046,4.709c3.59,3.113,6.64,6.725,10.031,10.056
			c3.338,3.299,7.07,6.132,11.369,8.077c1.085,0.49,2.759,1.355,4.024,1.003C924.111-364.18,924.816-365.299,924.683-366.208"/>
		<path fill="#41434F" d="M921.976-296.652c0,0,4.077-20.678-33.897-43.843c1.028,0.626,2.008,2.485,2.74,3.423
			c0.93,1.201,1.835,2.41,2.718,3.664c1.769,2.452,3.414,4.981,4.935,7.585c2.827,4.857,4.84,10.067,7.35,15.091
			c2.456,4.965,5.543,9.57,9.602,13.401c1.023,0.967,2.556,2.572,4.106,2.669C920.555-294.608,921.775-295.583,921.976-296.652"/>
		<path fill="#41434F" d="M917.632-423.717c-2.278,9.802,1.555,19.067,8.562,20.693c7.003,1.625,14.521-5.006,16.798-14.814
			c2.272-9.807-1.564-19.068-8.566-20.691C927.423-440.158,919.903-433.523,917.632-423.717"/>
		<path fill="#41434F" d="M932.864-337.952c-8.126,5.942-11.259,15.461-7.015,21.26c4.244,5.804,14.272,5.686,22.397-0.259
			c8.122-5.951,11.255-15.474,7.009-21.269C951.011-344.025,940.985-343.901,932.864-337.952"/>
		<path fill="#41434F" d="M927.076-297.746c-8.127,5.941-11.27,15.463-7.02,21.266c4.251,5.799,14.276,5.681,22.397-0.263
			c8.122-5.95,11.261-15.474,7.009-21.272C945.218-303.82,935.192-303.688,927.076-297.746"/>
		<path fill="#41434F" d="M918.924-353.556c6.491,7.693,7.294,17.686,1.794,22.32c-5.494,4.635-15.207,2.158-21.698-5.539
			c-6.491-7.695-7.29-17.695-1.795-22.326C902.718-363.735,912.437-361.247,918.924-353.556"/>
		<path fill="#41434F" d="M908.947-414.161c8.803,4.881,13.107,13.935,9.616,20.223c-3.486,6.286-13.445,7.426-22.25,2.541
			c-8.804-4.883-13.107-13.945-9.619-20.228C890.18-417.909,900.148-419.041,908.947-414.161"/>
	</g>
	<g>
		<path fill="#41434F" d="M171.165,147.306c0,28.12-10.528,42.646-38.382,42.646c-26.254,0-39.182-9.729-39.182-37.716v-35.184
			c0-13.193-0.133-19.724-3.197-23.056c-2.133-2.266-5.598-2.932-11.595-2.932v-5.064h45.445v5.064
			c-5.997,0-9.595,0.399-11.728,3.198c-2.398,3.199-2.932,9.729-2.932,22.789v36.25c0,18.125,7.063,28.387,26.921,28.387
			c17.725,0,26.653-10.129,26.653-29.187v-32.118c0-15.859-0.933-23.322-4.397-26.654c-2.399-2.266-6.131-2.665-11.595-2.665v-5.064
			h38.648v5.064c-5.598,0-9.195,0.533-11.328,3.599c-2.665,3.73-3.332,11.061-3.332,25.721V147.306z"/>
		<path fill="#41434F" d="M291.102,111.455h-5.464c-1.199-15.459-7.33-19.724-22.789-19.724c-13.193,0-15.06,1.066-15.06,4.132v71.3
			c0,11.461,2.133,15.858,17.192,16.392v5.064h-50.377v-5.064c15.06-0.533,17.325-4.931,17.325-16.392v-71.3
			c0-3.065-1.732-4.132-13.061-4.132c-13.859,0-24.255,0.8-24.788,19.724h-4.931V86.001H289.77L291.102,111.455z"/>
		<path fill="#41434F" d="M324.681,163.431c0,17.592,1.999,19.725,14.526,20.124v5.064h-43.18v-5.064
			c12.527-0.399,14.66-2.665,14.66-19.19v-54.108c0-15.059-1.866-18.657-13.327-19.19v-5.064h40.514v5.064
			c-11.461,0.399-13.193,3.998-13.193,20.124V163.431z"/>
		<path fill="#41434F" d="M432.363,86.001h3.731l1.199,30.652h-4.931c-3.865-15.46-15.859-25.055-31.585-25.055
			c-21.59,0-34.384,17.591-34.384,46.645c0,28.52,12.395,44.512,34.783,44.512c16.926,0,28.254-9.328,33.052-27.32h5.464v33.185
			h-4.665l-3.064-10.528c-9.463,7.996-20.657,11.861-33.852,11.861c-30.118,0-49.576-19.857-49.576-50.909
			c0-32.252,20.79-54.375,51.043-54.375c10.661,0,19.457,2.799,30.386,9.596L432.363,86.001z"/>
		<path fill="#41434F" d="M509.12,151.437h-35.583c-6.131,14.66-8.263,21.99-8.263,25.588c0,4.932,3.064,6.53,10.395,6.53v5.064
			h-32.385v-5.064c8.13-0.933,11.461-3.198,14.526-10.795l34.65-86.759h5.73l30.253,75.164
			c8.129,19.991,11.062,22.257,20.257,22.257v5.197h-43.446v-5.197c9.462,0,12.395-1.6,12.395-5.73
			c0-3.466-0.667-5.731-3.065-11.861L509.12,151.437z M476.202,144.773h30.386l-14.793-39.314L476.202,144.773z"/>
	</g>
	<g>
		<path fill="#41434F" d="M-568.671,38.906c0,28.12-10.528,42.646-38.382,42.646c-26.254,0-39.182-9.729-39.182-37.716V8.653
			c0-13.193-0.133-19.724-3.197-23.056c-2.133-2.266-5.598-2.932-11.595-2.932v-5.064h45.445v5.064
			c-5.997,0-9.595,0.399-11.728,3.198c-2.398,3.199-2.932,9.729-2.932,22.789v36.25c0,18.125,7.063,28.387,26.921,28.387
			c17.725,0,26.653-10.129,26.653-29.187V11.985c0-15.859-0.933-23.322-4.397-26.654c-2.399-2.266-6.131-2.665-11.595-2.665v-5.064
			h38.648v5.064c-5.598,0-9.195,0.533-11.328,3.599c-2.665,3.73-3.332,11.061-3.332,25.721V38.906z"/>
		<path fill="#41434F" d="M-448.733,3.056h-5.464c-1.199-15.459-7.33-19.724-22.789-19.724c-13.193,0-15.06,1.066-15.06,4.132v71.3
			c0,11.461,2.133,15.858,17.192,16.392v5.064h-50.377v-5.064c15.06-0.533,17.325-4.931,17.325-16.392v-71.3
			c0-3.065-1.732-4.132-13.061-4.132c-13.859,0-24.255,0.8-24.788,19.724h-4.931v-25.454h100.619L-448.733,3.056z"/>
		<path fill="#41434F" d="M-415.154,55.031c0,17.592,1.999,19.725,14.526,20.124v5.064h-43.18v-5.064
			c12.527-0.399,14.66-2.665,14.66-19.19V1.856c0-15.059-1.866-18.657-13.327-19.19v-5.064h40.514v5.064
			c-11.461,0.399-13.193,3.998-13.193,20.124V55.031z"/>
		<path fill="#41434F" d="M-307.473-22.398h3.731l1.199,30.652h-4.931c-3.865-15.46-15.859-25.055-31.585-25.055
			c-21.59,0-34.384,17.591-34.384,46.645c0,28.52,12.395,44.512,34.783,44.512c16.926,0,28.254-9.328,33.052-27.32h5.464V80.22
			h-4.665l-3.064-10.528c-9.463,7.996-20.657,11.861-33.852,11.861c-30.118,0-49.576-19.857-49.576-50.909
			c0-32.252,20.79-54.375,51.043-54.375c10.661,0,19.457,2.799,30.386,9.596L-307.473-22.398z"/>
		<path fill="#41434F" d="M-230.716,43.037h-35.583c-6.131,14.66-8.263,21.99-8.263,25.588c0,4.932,3.064,6.53,10.395,6.53v5.064
			h-32.385v-5.064c8.13-0.933,11.461-3.198,14.526-10.795l34.65-86.759h5.73l30.253,75.164
			c8.129,19.991,11.062,22.257,20.257,22.257v5.197h-43.446v-5.197c9.462,0,12.395-1.6,12.395-5.73
			c0-3.466-0.667-5.731-3.065-11.861L-230.716,43.037z M-263.634,36.374h30.386L-248.041-2.94L-263.634,36.374z"/>
	</g>
	<g>
		<text transform="matrix(1 0 0 1 855.7427 -61.6562)" fill="#41434F" font-family="'Raleway-Regular'" font-size="38.943">L’huile bio tunisienne</text>
	</g>
</g>
</svg>
